<?xml version="1.0" encoding="UTF-8"?>
<svg xmlns="http://www.w3.org/2000/svg" width="1201" height="1020" viewBox="0 0 1201 1020" fill="none">
  <path d="M671.778 661.565H653.344C653.344 630.136 627.814 604.606 596.386 604.606V586.173C637.953 586.173 671.778 619.998 671.778 661.565Z" fill="#D8E20E"></path>
  <path d="M785.603 661.568C785.603 557.236 700.718 472.351 596.386 472.351V453.918C710.856 453.918 804.036 547.098 804.036 661.568H785.603Z" fill="#D8E20E"></path>
  <path d="M936.386 661.565H917.953C917.953 484.238 773.713 339.998 596.386 339.998V321.564C783.852 321.564 936.386 474.099 936.386 661.565Z" fill="#D8E20E"></path>
  <path d="M1068.65 661.569H1050.21C1050.21 411.338 846.617 207.743 596.386 207.743V189.31C856.847 189.31 1068.65 401.2 1068.65 661.569Z" fill="#D8E20E"></path>
  <path d="M1201 661.566H1182.56C1182.56 338.339 919.613 75.3888 596.386 75.3888V56.9556C929.751 56.9556 1201 328.201 1201 661.566Z" fill="#D8E20E"></path>
  <path d="M596.389 449.31H0.995117V476.959H596.389V449.31Z" fill="#1BCCAE"></path>
  <path d="M596.389 581.564H0.995117V609.214H596.389V581.564Z" fill="#1BCCAE"></path>
  <path d="M596.389 713.918H0.995117V741.568H596.389V713.918Z" fill="#1BCCAE"></path>
  <path d="M596.389 846.173H0.995117V873.823H596.389V846.173Z" fill="#1BCCAE"></path>
  <path d="M596.389 978.527H0.995117V1006.18H596.389V978.527Z" fill="#1BCCAE"></path>
  <path d="M596.388 89.2168C547.171 89.2168 507.171 49.2167 507.171 0H553.254C553.254 23.7789 572.609 43.1337 596.388 43.1337V89.2168Z" fill="#F9389D"></path>
  <path d="M596.392 221.565C474.271 221.565 374.916 122.21 374.916 0.0898438H420.999C420.999 96.7722 499.709 175.482 596.392 175.482V221.565Z" fill="#F9389D"></path>
  <path d="M596.389 353.826C401.273 353.826 242.562 195.116 242.562 0H288.646C288.646 169.678 426.711 307.743 596.389 307.743V353.826Z" fill="#F9389D"></path>
  <path d="M596.386 755.388V700.088C617.584 700.088 634.911 682.853 634.911 661.562H690.211C690.211 713.268 648.091 755.388 596.386 755.388Z" fill="#F9389D"></path>
  <path d="M596.386 887.646V832.346C690.58 832.346 767.169 755.756 767.169 661.562H822.469C822.469 786.263 721.087 887.646 596.386 887.646Z" fill="#F9389D"></path>
  <path d="M596.386 1020V964.697C763.483 964.697 899.52 828.752 899.52 661.562H954.82C954.82 859.167 793.99 1020 596.386 1020Z" fill="#F9389D"></path>
</svg>
